<svg width="479" height="469" viewBox="0 0 479 469" fill="none" xmlns="http://www.w3.org/2000/svg">
<path d="M12.4537 347.473C134.125 412.723 285.728 367.117 351.07 245.61C393.676 166.379 389.085 74.4406 346.999 1.96396C462.127 69.6331 504.071 216.668 440.308 335.239C374.967 456.746 223.364 502.352 101.692 437.102C59.3586 414.399 26.2261 381.268 3.7692 342.595C6.61935 344.27 9.51434 345.896 12.4537 347.473Z" fill="#FFE8D3"/>
<path d="M12.4537 347.473C134.125 412.723 285.728 367.117 351.07 245.61C393.676 166.379 389.085 74.4406 346.999 1.96396C462.127 69.6331 504.071 216.668 440.308 335.239C374.967 456.746 223.364 502.352 101.692 437.102C59.3586 414.399 26.2261 381.268 3.7692 342.595C6.61935 344.27 9.51434 345.896 12.4537 347.473Z" stroke="#FFB08E"/>
<path d="M55.6305 54.0867L55.514 54.7168L56.0378 55.0859L65.9086 62.0411L54.0347 59.8463L53.4045 59.7299L53.0355 60.2537L46.0803 70.1244L48.275 58.2505L48.3915 57.6204L47.8677 57.2513L37.9969 50.2961L49.8708 52.4909L50.5009 52.6073L50.87 52.0835L57.8252 42.2128L55.6305 54.0867Z" stroke="#111827" stroke-width="2"/>
<path d="M337.862 50.437C318.788 57.7214 324.657 54.8076 324.657 54.8076C324.657 54.8076 306.757 50.437 299.714 50.437C290.911 50.437 299.714 57.7214 287.977 60.6352C276.24 63.549 271.839 60.6352 257.166 65.0059C242.494 69.3766 264.502 72.2903 257.166 79.5748C249.83 86.8592 265.969 83.9455 287.977 83.9455C309.985 83.9455 298.247 83.9455 299.714 92.6868C301.182 101.428 318.788 94.1437 342.263 92.6868C361.043 91.5213 355.468 94.1437 370.139 97.0575C384.81 99.9713 386.278 92.6868 398.015 97.0575C409.753 101.428 440.564 97.0575 446.432 97.0575C452.301 97.0575 450.177 90.967 453.768 88.3161C459.903 83.7878 462.278 90.9385 472.842 83.9455C483.405 76.9524 471.374 73.2616 464.038 72.2903C464.038 72.2903 427.359 75.2041 428.826 72.2903C430.294 69.3766 434.695 71.999 428.826 65.0059C421.49 56.2645 411.22 67.9197 398.015 65.0059C384.811 62.0921 392.147 54.8076 386.278 50.437C380.409 46.0663 356.935 43.1525 337.862 50.437Z" stroke="#111827" stroke-width="2"/>
<path d="M94.112 138.989C73.4281 146.823 79.7924 143.689 79.7924 143.689C79.7924 143.689 60.3812 138.989 52.7436 138.989C43.1968 138.989 52.7436 146.823 40.015 149.957C27.2865 153.09 22.5139 149.957 6.6025 154.657C-9.30893 159.358 14.5579 162.491 6.6025 170.326C-1.35287 178.16 16.1489 175.026 40.015 175.026C63.8812 175.026 51.1526 175.026 52.7436 184.427C54.3347 193.828 73.4276 185.994 98.8848 184.427C119.251 183.174 113.205 185.994 129.115 189.128C145.025 192.261 146.617 184.427 159.346 189.128C172.075 193.828 205.487 189.128 211.851 189.128C218.215 189.128 215.912 182.578 219.806 179.727C226.46 174.856 229.035 182.547 240.49 175.026C251.946 167.505 238.899 163.536 230.944 162.491C230.944 162.491 191.167 165.625 192.758 162.491C194.35 159.358 199.122 162.178 192.758 154.657C184.803 145.256 173.665 157.791 159.346 154.657C145.026 151.523 152.981 143.689 146.617 138.989C140.253 134.288 114.796 131.154 94.112 138.989Z" stroke="#111827" stroke-width="2"/>
<path d="M413.04 236.672L427.998 211.828C428.673 214.801 429.61 217.709 430.797 220.517C432.538 224.062 431.223 227.216 427.61 230.27" stroke="black" stroke-width="2" stroke-linecap="round" stroke-linejoin="round"/>
<path d="M403.432 239.059C406.744 241.053 411.046 239.984 413.04 236.672C415.034 233.36 413.965 229.059 410.653 227.065C407.341 225.071 403.04 226.139 401.046 229.451C399.052 232.763 400.12 237.065 403.432 239.059Z" stroke="black" stroke-width="2" stroke-linecap="round" stroke-linejoin="round"/>
</svg>
