<svg width="2900" height="469" viewBox="0 0 2900 469" fill="none" xmlns="http://www.w3.org/2000/svg">
<g clip-path="url(#clip0_442_9085)">
<path d="M1446.67 195.38L1611.74 266.696L1651.7 287.599L1676.3 324.179L1743.92 364.141L1758.68 492.94H1024V449.289L1063.96 324.179V209.52L1086.71 125.908L1133.74 88.0977C1133.74 88.0977 1160.48 65.6584 1168.48 61.6622C1176.47 57.666 1189.38 73.0361 1203.21 73.6507C1209.29 73.9206 1228.91 89.9521 1246.25 98.5492C1268.39 109.528 1288.36 113.612 1288.36 113.612L1318.49 142.814C1318.49 142.814 1339.39 128.675 1349.23 125.908C1359.06 123.141 1446.67 195.38 1446.67 195.38Z" fill="url(#paint0_linear_442_9085)"/>
<path d="M907.669 43.9577L815.45 0L782 19L728.5 43.9577L661 68.5C643.667 74.1667 608.7 87.8 607.5 97C580.5 121.5 571.909 133.41 548.5 133.41C532.5 133.41 511.5 164.206 490 184L439.5 200L415.5 234.5C407.167 239.301 388.2 253.922 379 274C367.5 299.097 270.5 334.727 267.5 345.5C265.1 354.118 248.833 381.091 241 393.5L211.5 438.348V469.087L185 497.06H804.999H825.594H1410.57C1405.24 491.117 1394.59 477.203 1394.59 469.087V438.348V406.071C1386.7 395.824 1368.58 371.52 1359.24 356.273C1349.89 341.026 1350.42 311.803 1351.86 299.097L1272.86 263.746L1209.84 250.528L1153.89 174.294L1102.56 133.41L1067.52 87.9155C1067.52 87.9155 1004.81 24.8537 992.818 29.2027C983.053 32.7452 970.686 43.9577 970.686 43.9577H907.669Z" fill="url(#paint1_linear_442_9085)"/>
<path d="M2637.9 73.9577H2695L2726.5 55L2750.5 44L2804 38.5L2873 8.5L2906.5 1.5C2923.83 7.16667 2936.87 87.8 2938.07 97C2965.07 121.5 2973.66 133.41 2997.07 133.41C3013.07 133.41 3034.07 164.206 3055.57 184L3106.07 200L3130.07 234.5C3138.4 239.301 3157.37 253.922 3166.57 274C3178.07 299.097 3275.07 334.727 3278.07 345.5C3280.47 354.118 3296.74 381.091 3304.57 393.5L3334.07 438.348V469.087L3360.57 497.06H2740.57H2719.98H2015C2020.33 491.117 2030.98 477.203 2030.98 469.087V438.348V396.071C2038.87 385.824 2056.99 361.52 2066.34 346.273C2075.68 331.026 2075.15 331.803 2073.71 319.097L2152.71 283.746L2215.73 270.528L2286.5 220L2321 179L2401 142C2401 142 2472.6 147.46 2497.5 133C2513 124 2565.5 119.5 2565.5 119.5L2637.9 73.9577Z" fill="url(#paint2_linear_442_9085)"/>
<path d="M1980.74 145.492H2024.7L2076.96 131H2136.5L2242 228.182L2313 263.532C2337.33 271.355 2389.3 287 2402.5 287C2419 287 2465.73 271.393 2490.5 287C2527 310 2560.5 352.985 2598 352.985L2704 475.5V519.901H2090.48H2076.96H832C877.495 468.771 968.485 363.805 968.485 352.985C968.485 339.459 993.999 313.945 1005.68 307.182C1015.02 301.772 1073.72 275.828 1101.89 263.532H1262.05L1359.8 228.182L1479.69 145.492L1575.9 119.978L1623.24 96.3083L1661.97 47.4323L1678.88 30.5255H1702.55L1722.84 17L1763.1 47.4323L1801.84 74.4832L1877.76 96.3083C1886.27 101.432 1904.26 113.338 1908.2 119.978C1912.13 126.618 1932.38 139.754 1942.01 145.492H1980.74Z" fill="url(#paint3_linear_442_9085)"/>
<path d="M253.5 66.9081C269.275 71 315 81 315 81L347 107.5H440.5L510 155.5L564 193L593 227L704 256.5L794.5 410.5L-75.0003 433.94V390.289L-35.0388 265.179V150.52L-12.2914 66.9081L34.7403 29.0977C34.7403 29.0977 61.4838 6.65843 69.4761 2.66223C77.4684 -1.33397 90.3791 14.0361 104.212 14.6507C110.287 14.9206 123.661 38.9028 141 47.5C163.142 58.4785 183 53 183 53L215.5 47.5C215.5 47.5 237.725 62.8163 253.5 66.9081Z" fill="url(#paint4_linear_442_9085)"/>
<path d="M1958 432L2038.36 412.711L2118.5 401.644L2217.5 381L2282 357.072L2370.5 334.017L2454 357.072L2484.5 370.5C2496.83 362.524 2524.8 357.072 2536 357.072C2550 357.072 2564.5 350.616 2575.5 342.317C2584.3 335.677 2637.5 334.017 2663 334.017C2671.17 341.702 2690.4 357.072 2702 357.072C2713.6 357.072 2802.83 315.676 2846 294.978L2899.5 273.152V629.118H2090H810.308H-1.5V172.5L89 201H146L190 225C207.833 225 212.718 242.474 244 252.864C270 261.5 295.833 263.652 309 252.864H325.5L403.5 225H439L484.5 245.5C495.667 245.5 543.2 251.769 566 268C588.8 284.231 614.5 279.915 613.5 273.152L695 252.864L748.5 220.5L810.308 201L899.453 252.864L1003.66 273.152H1056.53L1148.5 286.678L1163 305.5L1193.5 315.266H1215.5H1232.5H1277.5H1309.52L1359.32 334.017H1393.13L1413.42 342.317C1423.36 335.964 1446.25 321.66 1458.3 315.266C1470.35 308.872 1478.49 299.076 1481.05 294.978H1514.86L1529.92 286.678H1550.21C1561.89 292.621 1590.11 306.659 1609.54 315.266C1628.97 323.873 1670.1 331.353 1688.23 334.017L1722.05 357.072L1797.5 412.711L1873.5 401.644L1958 432Z" fill="#210751"/>
<path d="M1087.76 195.616C1083.63 199.586 1080.78 207.03 1080.33 209.302C1079 208 1073.5 203.942 1067.92 202.49C1062.34 201.037 1055.66 204.794 1052.31 206.309C1053.34 204.716 1057.12 200.94 1063.92 198.583C1070.72 196.227 1075.57 198.605 1077.22 200.325C1078.09 197.732 1081.33 192.023 1089.27 189.273C1097.21 186.524 1100.03 189.78 1100.03 189.78C1094.5 190.635 1091.89 191.646 1087.76 195.616Z" fill="#421C86"/>
<path d="M1301.51 174.247C1297.91 175.909 1294.34 180.137 1293.53 181.524C1292.96 180.367 1290.28 176.458 1286.95 174.236C1283.62 172.015 1278.4 172.959 1275.85 173.188C1276.89 172.379 1280.22 170.764 1285.22 170.767C1290.21 170.771 1292.85 173.432 1293.54 174.935C1294.69 173.433 1298.12 170.43 1303.94 170.434C1309.77 170.439 1310.88 173.214 1310.88 173.214C1307.06 172.517 1305.12 172.585 1301.51 174.247Z" fill="#421C86"/>
</g>
<defs>
<linearGradient id="paint0_linear_442_9085" x1="1441.6" y1="150" x2="1418.39" y2="430.538" gradientUnits="userSpaceOnUse">
<stop stop-color="#5A2EB0"/>
<stop offset="1" stop-color="#7445CF"/>
</linearGradient>
<linearGradient id="paint1_linear_442_9085" x1="1122.5" y1="-34.0315" x2="1036.5" y2="420.969" gradientUnits="userSpaceOnUse">
<stop stop-color="#3D1489"/>
<stop offset="1" stop-color="#7245C9"/>
</linearGradient>
<linearGradient id="paint2_linear_442_9085" x1="2368.5" y1="46" x2="2460.5" y2="449" gradientUnits="userSpaceOnUse">
<stop stop-color="#210752"/>
<stop offset="1" stop-color="#5823B8"/>
</linearGradient>
<linearGradient id="paint3_linear_442_9085" x1="1768" y1="97.5" x2="1713.5" y2="730.5" gradientUnits="userSpaceOnUse">
<stop stop-color="#210751"/>
<stop offset="0.906208" stop-color="#6125CE"/>
</linearGradient>
<linearGradient id="paint4_linear_442_9085" x1="405.5" y1="47.5" x2="297" y2="418.5" gradientUnits="userSpaceOnUse">
<stop stop-color="#430E86"/>
<stop offset="1" stop-color="#7445CF"/>
</linearGradient>
<clipPath id="clip0_442_9085">
<rect width="2900" height="469" fill="white"/>
</clipPath>
</defs>
</svg>
