<svg width="540" height="419" viewBox="0 0 540 419" fill="none" xmlns="http://www.w3.org/2000/svg">
<circle cx="431.5" cy="98.7183" r="98.5" fill="white"/>
<path d="M114.033 180.161L122.405 185.195L131.232 181.008L126.198 189.38L130.384 198.207L122.012 193.173L113.185 197.36L118.22 188.987L114.033 180.161Z" stroke="white" stroke-width="2"/>
<path d="M468.155 111.325L478.504 117.549L489.416 112.373L483.193 122.723L488.368 133.634L478.018 127.411L467.107 132.587L473.33 122.237L468.155 111.325Z" stroke="#501FA8" stroke-width="2"/>
<path d="M51.6218 392.247C54.0941 391.81 53.9753 390.128 57.0358 386.846C60.8613 382.743 55.4247 380.541 62.0805 377.403C68.7364 374.264 72.7249 361.147 74.714 357.901C76.7032 354.654 82.7583 354.451 87.9634 349.771C92.1274 346.028 97.9272 347.934 100.307 349.356C101.688 355.757 105.313 369.271 108.767 372.122C112.22 374.974 114.115 387.859 119.739 393.322L128.966 404.232M127.662 351.615C131.618 351.393 140.75 349.797 145.631 345.181C151.732 339.412 148.696 339.249 155.657 331.331C162.618 323.413 163.793 316.749 169.58 315.495C175.366 314.24 174.773 324.329 178.713 330.555C182.653 336.781 180.554 350.63 184.853 353.664C189.152 356.699 190.935 354.255 199.802 361.375C208.668 368.495 214.598 364.587 219.353 374.23C224.107 383.873 228.075 384.005 232.884 388.347C236.732 391.821 237.855 392.861 237.935 392.946C238.503 393.634 239.734 395.112 240.121 395.522C240.507 395.933 241.318 396.454 241.554 396.534M102.171 293.917C104.225 294.908 109.534 295.153 114.336 288.209C120.34 279.528 115.493 281.016 123.601 272.529C131.709 264.043 139.496 253.249 141.762 250.987C148.078 244.68 154.976 241.798 155.667 234.621C156.22 228.88 169.473 219.937 171.65 217.656C173.567 216.885 177.547 216.928 178.134 223.267C178.867 231.191 184.525 246.898 185.312 249.521C186.1 252.144 190.289 265.781 197.195 270.053C204.1 274.325 202.072 290.29 208.722 321.596C212.689 340.275 221.373 351.111 226.53 358.886C231.688 366.661 241.728 374.007 241.323 382.764C240.999 389.77 241.651 399.445 242.018 403.407C241.265 404.139 237.453 406.316 228.223 409.171C218.993 412.025 198.138 411.243 188.864 410.495L141.795 404.395L141.562 404.403M5.85562 397.155C7.17173 392.023 3.47932 370.781 8.3764 361.46C12.2941 354.003 17.1935 350.65 19.1535 349.906C21.2474 345.765 25.4078 336.672 25.2983 333.42C25.1615 329.355 24.3838 328.364 27.9647 324.173C31.5457 319.983 28.3663 313.986 32.725 310.787C37.0837 307.588 40.4342 318.667 42.3912 310.461C44.3483 302.256 47.8951 297.05 49.2454 292.935C50.5957 288.819 53.3647 282.622 55.527 280.514C57.6892 278.406 59.2789 281.405 59.6805 271.217C60.082 261.03 57.6462 255.007 62.1075 254.857C66.5688 254.707 75.8246 242.186 78.2605 248.209C84.6193 260.204 83.8758 260.229 88.5081 265.16C93.1404 270.091 88.5765 267.193 93.4482 279.238C98.3199 291.283 98.8241 284.144 102.209 296.24C105.593 308.335 104.115 330.768 109.32 330.592C114.525 330.417 119.157 335.349 124.738 346.352C130.319 357.356 128.969 361.472 129.174 367.569C129.379 373.667 132.15 389.595 134.82 391.117C140.525 394.37 147.85 404.953 139.466 404.474C133.317 404.122 112.537 404.078 102.048 402.057C92.786 399.656 73.519 394.878 70.5448 394.978C66.8271 395.103 41.2726 387.823 38.572 396.054C36.4115 402.638 22.3962 402.024 15.6586 400.895L5.85562 397.155Z" stroke="white" stroke-width="2"/>
<path d="M250.319 375.788C253.912 375.195 253.746 372.949 258.205 368.553C263.778 363.057 255.889 360.138 265.57 355.92C275.25 351.702 281.096 334.166 283.998 329.822C286.9 325.478 295.697 325.182 303.276 318.911C309.339 313.895 317.756 316.419 321.207 318.308C323.188 326.852 328.401 344.888 333.407 348.683C338.412 352.478 341.113 369.681 349.261 376.956L362.621 391.491M360.934 321.217C366.681 320.906 379.953 318.737 387.061 312.553C395.946 304.823 391.536 304.618 401.679 294.014C411.823 283.411 413.555 274.506 421.966 272.808C430.376 271.109 429.475 284.586 435.174 292.887C440.872 301.188 437.769 319.693 444.002 323.73C450.234 327.766 452.834 324.494 465.685 333.97C478.536 343.445 487.166 338.201 494.034 351.063C500.902 363.924 506.666 364.084 513.635 369.865C519.21 374.49 520.837 375.874 520.953 375.989C521.775 376.904 523.557 378.873 524.117 379.421C524.678 379.968 538.158 388.586 538.5 388.693M538.5 388.693C537.983 383.402 525.417 371.734 525.915 362.375C526.537 350.676 511.983 340.904 504.521 330.54C497.059 320.175 484.488 305.736 478.799 280.803C469.264 239.015 472.272 217.682 462.258 212.003C452.244 206.324 446.213 188.127 445.079 184.626C443.945 181.126 435.788 160.169 434.754 149.588C433.928 141.123 428.146 141.081 425.358 142.119C422.187 145.174 402.9 157.171 402.074 164.842C401.042 174.431 391.011 178.307 381.812 186.755C378.511 189.786 367.158 204.234 355.347 215.601C343.536 226.968 350.582 224.962 341.828 236.58C334.824 245.874 327.114 245.568 324.134 244.252M538.5 388.693C537.404 389.673 520.2 393.848 506.781 397.697C493.362 401.546 463.072 400.583 449.604 399.621L381.256 391.659L380.917 391.671M183.82 382.523C185.752 375.664 180.473 347.307 187.623 334.837C193.343 324.861 200.473 320.363 203.323 319.362C206.381 313.824 212.46 301.661 212.314 297.318C212.131 291.889 211.005 290.568 216.223 284.957C221.442 279.346 216.847 271.348 223.191 267.058C229.535 262.768 234.358 277.553 237.233 266.586C240.108 255.618 245.281 248.65 247.258 243.149C249.236 237.647 253.283 229.358 256.432 226.534C259.581 223.71 261.878 227.71 262.502 214.1C263.125 200.491 259.611 192.457 266.092 192.239C272.573 192.021 286.067 175.261 289.582 183.295C298.771 199.292 297.691 199.329 304.4 205.897C311.11 212.465 304.492 208.611 311.521 224.68C318.55 240.749 319.31 231.213 324.179 247.354C329.048 263.496 326.812 293.465 334.374 293.211C341.935 292.956 348.644 299.524 356.708 314.2C364.772 328.876 362.794 334.378 363.068 342.521C363.342 350.665 367.305 371.929 371.176 373.952C379.451 378.273 390.049 392.38 377.873 391.773C368.942 391.328 338.758 391.351 323.529 388.693C310.085 385.521 282.116 379.215 277.796 379.361C272.395 379.543 235.303 369.92 231.348 380.924C228.184 389.727 207.828 388.963 198.045 387.48L183.82 382.523Z" stroke="white" stroke-width="2"/>
</svg>
