<svg width="735" height="406" viewBox="0 0 735 406" fill="none" xmlns="http://www.w3.org/2000/svg">
<path d="M626.174 69.6586C620.669 66.6438 616.164 62.5156 612.784 57.7072C632.62 67.2615 656.685 59.6993 667.383 40.1639C673.927 28.2151 674.002 14.466 668.79 2.94415C684.542 14.5406 689.677 36.2889 680.022 53.9188C669.499 73.1349 645.391 80.1819 626.174 69.6586Z" stroke="#111827" stroke-width="2"/>
<path d="M118.771 287.751C118.771 287.751 136.171 330.815 162.483 340.39C178.346 346.162 190.47 348.374 190.47 348.374C200.656 347.066 214.767 320.586 203.861 313.319C203.861 313.319 190.904 307.873 181.02 301.562C162.511 289.743 163.202 274.079 163.202 274.079L162.799 242.273L175.708 238.916C182.042 238.07 193.258 232.067 197.36 222.103C201.463 212.138 205.326 178.241 205.506 161.628C206.566 155.987 206.58 145.402 198.162 148.185C189.743 150.969 187.795 167.953 187.873 176.096C188.79 183.63 182.927 199.414 176.108 202.045C169.289 204.676 166.658 205.342 163.199 205.377L160.516 71.7197C158.303 54.486 158.507 27.6606 156.061 24.7406C153.004 21.0907 143.731 27.1893 144.497 33.1547C145.263 39.1202 142.303 163.592 142.82 187.781C143.234 207.132 137.905 209.973 135.188 208.974C132.89 191.078 131.086 163.834 124.586 164.668C118.086 165.503 116.592 191.823 119.91 210.936C119.91 210.936 116.655 206.332 113.193 202.248C108.531 196.748 107.604 179.205 107.604 179.205L103.975 147.319L98.7864 106.913C96.065 92.4393 96.7395 74.8471 93.8853 68.7455C90.3175 61.1186 89.7832 56.958 82.3993 59.9275C76.4922 62.3031 77.4222 81.6398 79.1245 94.8964L87.8205 202.929C87.8205 202.929 78.2498 197.368 74.3588 191.985C69.7567 185.618 68.4565 173.075 68.4565 173.075C67.6053 166.447 65.2916 152.46 62.8459 149.54C59.7888 145.89 56.4622 99.8278 48.5676 98.8203C42.2519 98.0143 44.5883 128.303 46.546 143.548C42.7252 140.67 34.4211 133.786 31.7711 129.275C28.4586 123.637 28.1892 81.2243 27.6785 77.2473C27.1678 73.2703 22.075 73.9243 17.4931 78.5552C12.9113 83.1862 18.273 124.945 23.1175 142.514C26.9931 156.57 42.2239 163.642 49.3548 165.422C51.9887 172.495 53.328 183.918 59.8122 198.141C66.7933 213.454 92.1959 224.539 106.997 235.14L121.055 265.223C115.281 260.575 103.224 251.343 101.187 251.604C98.6405 251.931 46.9853 220.993 39.9493 213.119C30.9709 203.071 28.2318 202.496 23.139 203.15C18.0461 203.804 22.8995 225.233 39.6993 236.172C50.7388 243.36 106.119 276.574 118.771 287.751Z" stroke="#111827" stroke-width="2"/>
<path d="M627.961 363.938C625.37 362.73 625.996 360.915 623.597 356.403C620.598 350.763 627.226 349.943 620.83 344.531C614.433 339.118 613.91 323.516 612.678 319.359C611.447 315.203 604.847 313.195 600.5 306.515C597.022 301.171 590.082 301.56 587.046 302.423C583.642 309.056 575.673 322.853 571.035 324.972C566.397 327.091 560.518 340.705 552.723 345.058L539.361 354.339M556.293 296.85C552.007 295.442 542.432 290.995 538.423 284.481C533.412 276.339 536.8 277.054 531.475 266.295C526.151 255.535 526.821 247.86 520.826 244.776C514.831 241.692 512.512 252.962 506.345 258.65C500.177 264.338 498.407 280.188 492.784 282.26C487.162 284.332 485.921 281.118 474.072 286.338C462.223 291.558 456.851 285.512 448.781 294.718C440.712 303.925 436.309 302.9 429.74 306.26C424.485 308.948 422.944 309.761 422.83 309.831C422.003 310.42 420.214 311.683 419.668 312.021C419.121 312.359 418.077 312.693 417.794 312.711M601.324 240.897C598.773 241.382 592.861 240.088 589.625 231.035C585.579 219.719 590.471 222.783 584.052 211.061C577.634 199.338 572.249 185.173 570.423 182.017C565.333 173.22 558.596 168.019 559.949 159.922C561.032 153.444 549.089 139.704 547.367 136.554C545.485 135.141 541.094 134.016 538.582 140.816C535.442 149.315 524.593 164.925 522.954 167.578C521.315 170.231 512.69 183.996 503.837 186.661C494.984 189.326 492.511 207.483 475.977 239.958C466.112 259.334 453.369 268.695 445.406 275.727C437.443 282.76 424.237 287.883 422.103 297.634C420.395 305.435 416.828 315.885 415.258 320.134C415.87 321.161 419.423 324.679 428.734 330.537C438.046 336.395 461.214 341.677 471.634 343.586L525.202 350.741L525.456 350.818M676.853 382.816C676.917 376.784 687.235 354.508 684.594 342.813C682.482 333.457 678.08 328.326 676.144 326.93C675.06 321.76 673.162 310.533 674.241 306.988C675.588 302.557 676.736 301.696 674.031 296.032C671.327 290.369 676.59 284.709 672.738 279.906C668.887 275.104 661.938 286.303 662.202 276.702C662.467 267.1 660.099 260.329 659.826 255.405C659.553 250.481 658.333 242.849 656.575 239.894C654.818 236.939 652.186 239.769 654.745 228.445C657.304 217.121 661.757 211.215 656.894 209.735C652.031 208.256 645.539 191.759 641.086 197.666C630.559 208.986 631.369 209.233 624.822 213.292C618.274 217.351 624.148 215.507 615.242 227.321C606.336 239.134 607.884 231.134 600.598 243.44C593.313 255.747 588.332 280.856 582.659 279.131C576.985 277.405 570.438 281.464 561.058 291.924C551.679 302.383 551.952 307.307 549.93 313.953C547.908 320.599 540.169 337.303 536.785 338.191C529.552 340.088 518.378 349.571 527.74 351.513C534.607 352.937 557.476 359.009 569.608 359.876C580.503 359.962 603.101 360.382 606.343 361.368C610.396 362.601 640.647 362.121 641.193 371.969C641.63 379.847 657.226 383.3 664.97 384.042L676.853 382.816Z" stroke="#111827" stroke-width="2"/>
<path d="M96.4 316.175L93.5763 331.451L106.276 340.4L90.9991 337.576L82.0507 350.275L84.8744 334.999L72.175 326.05L87.4516 328.874L96.4 316.175Z" fill="#FF9365"/>
</svg>
