<svg width="2900" height="1159" viewBox="0 0 2900 1159" fill="none" xmlns="http://www.w3.org/2000/svg">
<g clip-path="url(#clip0_441_9455)">
<rect width="2900" height="1159" fill="white"/>
<path d="M0 0H2900V884C2900 884 2316.6 884 1462.46 884C608.32 884 0 884 0 884V0Z" fill="url(#paint0_linear_441_9455)"/>
<path d="M2081.27 267.656H2115.6L2230 267.656L2314 267.656C2324.67 269.871 2360.5 267.656 2373 279.571C2383.21 289.301 2407.5 273.016 2407.5 296.5C2407.5 318.153 2357.5 310.739 2352.5 322.653C2347.5 334.568 2289.41 332.275 2268 332.275C2248 332.275 2137.49 330.567 2123.98 334.713L2015.8 337.847H1888.4C1875.89 337.847 1866.1 340.442 1852.53 337.847C1838.97 335.251 1842.15 339.38 1836.37 337.847C1830.59 336.313 1836.37 332.656 1842.15 331.122C1847.93 329.589 1854.66 322.275 1862.44 327.465C1870.23 332.656 1871.76 322.275 1879.08 322.275C1886.39 322.275 1892.05 320.152 1905.03 322.275C1918.01 324.398 1909.16 318.618 1915.41 315.551C1921.66 312.484 1925.79 314.187 1938.3 312.653C1948.3 311.426 1947.42 307.187 1943.25 305.103C1943.25 305.103 1938.32 295.129 1954.48 291C1970.64 286.871 1971.56 287.475 1986.19 283.818C2000.82 280.161 2007.43 280.633 2019.93 279.571C2032.39 278.513 2040.63 275.466 2054.57 270.312L2054.73 270.252C2065.96 266.099 2077.11 266.791 2081.27 267.656Z" fill="white" fill-opacity="0.4"/>
<path d="M767.827 249.003H718.109L622 263.694C604 258.948 566 241.577 526 252.968C476 267.206 485 257.935 445.5 273.694C406 289.452 321 285 311.5 314.499C299.178 332.448 338 344.818 354.5 352.748C371 360.678 392 346.902 412.5 357.175C433 367.448 515 339.231 543.5 352.748C572 366.265 631.5 352.748 654.5 352.748C672.9 352.748 732.841 355.346 750.5 357.175L862.5 352.748L1047.17 356.238C1065.28 356.238 1079.46 360.203 1099.1 356.238C1118.75 352.273 1114.14 358.581 1122.51 356.238C1130.88 353.895 1122.51 348.308 1114.14 345.965C1105.77 343.622 1096.03 332.448 1084.75 340.378C1073.48 348.308 1071.26 332.448 1060.66 332.448C1050.07 332.448 1041.87 329.204 1023.08 332.448C1004.28 335.692 1017.1 326.861 1008.04 322.175C998.987 317.489 993.007 320.091 974.897 317.748C960.409 315.874 961.684 309.397 967.721 306.213C973.245 306.213 976.393 303.87 983.61 303.87C991.128 303.87 1022.22 304.591 1028.89 294.499C1035.55 284.406 1014.02 289.452 1014.02 289.452C987.027 284.766 991.128 283.144 967.721 276.836C944.315 270.528 926.717 279.281 905.532 273.694C884.346 268.107 874.779 268.828 856.669 267.206C838.629 265.59 826.692 260.934 806.504 253.06L806.268 252.968C790.003 246.624 773.863 247.681 767.827 249.003Z" fill="white" fill-opacity="0.4"/>
<path d="M1814.86 163.424C1796.2 166.34 1792.52 174.469 1793.02 178.169L1800.14 187.612C1807.2 187.115 1822.34 186.419 1826.45 187.612C1831.58 189.103 1864.34 197.055 1873.94 197.055C1883.54 197.055 1919.12 203.682 1942.45 197.055C1965.78 190.428 1990.6 191.919 2010.96 191.919C2029.64 193.631 2071.9 198.844 2091.5 206C2116 214.945 2153 197.055 2210.5 197.055C2268 197.055 2272.5 206 2303 206C2333.5 206 2332 202.5 2356 191.919C2380 181.338 2392.5 197.055 2410 197.055C2427.5 197.055 2426.5 191.919 2447.5 178.169C2468.5 164.418 2478.5 178.169 2489.5 178.169C2500.5 178.169 2512.5 163.424 2523.5 163.424C2534.5 163.424 2528 152 2523.5 143.71C2519 135.419 2490.5 143.71 2464 134.267C2437.5 124.824 2436.5 118 2392.5 120C2357.3 121.6 2318.67 125.042 2307.5 129.131L2261 134.267L2201 129.131H2120.5C2100.31 129.352 2060.37 136.685 2048.19 143.71C2032.97 152.49 2024.03 143.71 2010.96 143.71C1997.88 143.71 1982.49 133.604 1965.12 129.131C1947.74 124.658 1946.09 134.267 1919.12 143.71C1892.14 153.153 1900.91 156.135 1879.73 158.289C1858.55 160.442 1838.2 159.78 1814.86 163.424Z" fill="white" fill-opacity="0.4"/>
<path d="M-346.046 215.705C-364.789 212.057 -368.655 201.052 -368.245 196.006L-361.348 183.026C-354.273 183.581 -339.103 184.267 -335.026 182.572C-329.929 180.454 -297.336 169.061 -287.734 168.896C-278.132 168.73 -242.694 159.094 -219.196 167.714C-195.698 176.335 -170.9 173.877 -150.538 173.526C-131.889 170.873 -89.7301 163.046 -70.2896 152.964C-45.9889 140.362 -8.55291 164.083 48.9721 163.092C106.497 162.1 110.789 149.843 141.302 149.317C171.816 148.791 170.397 153.582 194.656 167.575C218.915 181.568 231.051 159.953 248.559 159.651C266.066 159.35 265.186 166.36 286.518 184.72C307.85 203.08 317.532 184.185 328.536 183.995C339.541 183.806 351.893 203.674 362.897 203.485C373.902 203.295 367.667 218.962 363.36 230.328C359.053 241.693 330.346 230.897 304.056 244.211C277.766 257.526 276.926 266.834 232.86 264.869C197.607 263.298 158.876 259.277 147.608 253.903L100.968 247.712L41.0621 255.739L-39.4728 257.127C-59.6752 257.175 -99.8079 247.878 -112.157 238.524C-127.594 226.832 -136.328 238.941 -149.406 239.166C-162.485 239.392 -177.644 253.417 -194.922 259.807C-212.2 266.197 -214.081 253.142 -241.287 240.75C-268.493 228.358 -259.789 224.146 -281.03 221.579C-302.271 219.012 -322.618 220.265 -346.046 215.705Z" fill="white" fill-opacity="0.4"/>
<path d="M329.023 412.705C347.766 409.057 351.632 398.052 351.222 393.006L344.325 380.026C337.25 380.581 322.08 381.267 318.002 379.572C312.905 377.454 280.313 366.061 270.711 365.896C261.109 365.73 225.671 356.094 202.173 364.714C178.675 373.335 153.877 370.877 133.514 370.526C114.865 367.873 72.7067 360.046 53.2661 349.964C28.9654 337.362 -8.47053 361.083 -65.9955 360.092C-123.52 359.1 -127.812 346.843 -158.326 346.317C-188.839 345.791 -187.42 350.582 -211.679 364.575C-235.938 378.568 -248.075 356.953 -265.582 356.651C-283.09 356.35 -282.21 363.36 -303.542 381.72C-324.874 400.08 -334.555 381.185 -345.56 380.995C-356.565 380.806 -368.916 400.674 -379.921 400.485C-390.926 400.295 -384.691 415.962 -380.383 427.328C-376.076 438.693 -347.369 427.897 -321.079 441.211C-294.789 454.526 -293.949 463.834 -249.883 461.869C-214.63 460.298 -175.899 456.277 -164.632 450.903L-117.991 444.712L-58.0856 452.739L22.4494 454.127C42.6518 454.175 82.7844 444.878 95.1338 435.524C110.571 423.832 119.304 435.941 132.383 436.166C145.461 436.392 160.62 450.417 177.898 456.807C195.176 463.197 197.057 450.142 224.263 437.75C251.47 425.358 242.766 421.146 264.007 418.579C285.248 416.012 305.595 417.265 329.023 412.705Z" fill="white" fill-opacity="0.4"/>
<path d="M953.335 173.894C967.93 177.829 970.283 196.158 969.634 199.831C969.634 199.831 968.906 209.768 963.344 208.886C957.781 208.004 945.823 206.481 942.487 207.45C938.318 208.661 911.799 214.825 904.191 214.301C896.583 213.777 867.065 213.243 849.026 205.342C830.987 197.442 812.364 198.49 796.23 197.379C783.322 196.49 730.828 207.204 706.342 205.518C685.895 206.138 638.801 204.682 614.001 193.894C583.001 180.409 569.501 209.831 533.001 205.518C496.501 201.204 451.501 207.45 432.501 195.518C413.501 183.585 430.001 183.894 451.501 158.489C473.001 133.084 477.407 159.277 501.501 142.266C533.001 120.027 586.501 130.027 614.001 130.027C641.501 130.027 654.001 142.266 691.002 130.027C710.202 123.676 747.424 112.903 768.884 120.027C780.348 129.639 790.351 131.553 800.713 132.266C811.076 132.98 822.51 144.924 836.592 141.399L836.948 141.31C850.685 137.87 851.499 137.667 872.054 148.489C892.785 159.405 885.627 161.908 902.269 165.218C918.911 168.528 935.09 168.976 953.335 173.894Z" fill="white" fill-opacity="0.4"/>
<path d="M2970.96 257.283C2985.56 261.218 2987.91 269.547 2987.26 273.22C2987.26 273.22 2986.53 283.157 2980.97 282.275C2975.41 281.393 2963.45 279.87 2960.11 280.839C2955.94 282.05 2929.42 288.214 2921.82 287.69C2914.21 287.166 2884.69 286.632 2866.65 278.731C2848.61 270.831 2829.99 271.879 2813.86 270.768C2800.95 269.879 2748.45 270.593 2723.97 268.907C2703.52 269.527 2656.43 268.071 2631.63 257.283C2600.63 243.799 2587.13 273.22 2550.63 268.907C2514.13 264.593 2469.13 280.839 2450.13 268.907C2431.13 256.974 2447.63 257.283 2469.13 231.878C2490.63 206.473 2505.63 231.878 2519.13 205.655C2532.63 179.433 2592.13 205.655 2619.63 205.655C2647.13 205.655 2695.13 214.788 2708.63 193.416C2719.43 176.318 2765.05 186.292 2786.51 193.416C2797.97 203.028 2807.98 204.942 2818.34 205.655C2828.7 206.369 2840.14 218.313 2854.22 214.788C2868.3 211.264 2868.95 220.963 2889.68 231.878C2910.41 242.794 2903.25 245.297 2919.9 248.607C2936.54 251.917 2952.72 252.365 2970.96 257.283Z" fill="white" fill-opacity="0.4"/>
<path d="M3131.96 141.283C3146.56 145.218 3148.91 153.547 3148.26 157.22C3148.26 157.22 3147.53 167.157 3141.97 166.275C3136.41 165.393 3124.45 163.87 3121.11 164.839C3116.94 166.05 3090.42 172.214 3082.82 171.69C3075.21 171.166 3045.69 170.632 3027.65 162.731C3009.61 154.831 2990.99 155.879 2974.86 154.768C2961.95 153.879 2909.45 154.593 2884.97 152.907C2864.52 153.527 2817.43 152.071 2792.63 141.283C2761.63 127.799 2748.13 157.22 2711.63 152.907C2675.13 148.593 2630.13 164.839 2611.13 152.907C2592.13 140.974 2608.63 141.283 2630.13 115.878C2651.63 90.4734 2666.63 115.878 2680.13 89.6555C2693.63 63.4326 2753.13 89.6555 2780.63 89.6555C2808.13 89.6555 2856.13 98.7884 2869.63 77.4162C2880.43 60.3185 2926.05 70.2922 2947.51 77.4162C2958.97 87.0277 2968.98 88.9419 2979.34 89.6555C2989.7 90.369 3001.14 102.313 3015.22 98.7884C3029.3 95.2637 3029.95 104.963 3050.68 115.878C3071.41 126.794 3064.25 129.297 3080.9 132.607C3097.54 135.917 3113.72 136.365 3131.96 141.283Z" fill="white" fill-opacity="0.4"/>
<path d="M1474.99 596.38L1309.91 667.696L1269.95 688.599L1245.36 725.179L1177.73 765.141L1162.98 893.94H1897.66V850.289L1857.7 725.179V610.52L1834.95 526.908L1787.92 489.098C1787.92 489.098 1761.17 466.658 1753.18 462.662C1745.19 458.666 1732.28 474.036 1718.44 474.651C1712.37 474.921 1692.75 490.952 1675.41 499.549C1653.27 510.528 1633.3 514.612 1633.3 514.612L1603.17 543.814C1603.17 543.814 1582.27 529.675 1572.43 526.908C1562.59 524.141 1474.99 596.38 1474.99 596.38Z" fill="url(#paint1_linear_441_9455)"/>
<path d="M761.761 559.492L695.979 608.368L603.5 659.5L575.5 744L603.5 898L709.504 933.901H1954.46C1908.97 882.771 1817.98 777.805 1817.98 766.985C1817.98 753.459 1792.46 727.945 1780.78 721.182C1771.44 715.772 1712.74 689.828 1684.57 677.532H1524.41L1426.66 642.182L1306.78 559.492L1210.56 533.978L1163.22 510.308L1124.49 461.432L1107.58 444.525H1083.91L1063.62 431L1023.36 461.432L984.624 488.483L908.697 510.308C900.192 515.432 882.199 527.338 878.265 533.978C874.33 540.618 854.083 553.754 844.451 559.492H805.719H761.761Z" fill="url(#paint2_linear_441_9455)"/>
<path d="M1975.88 435.958L2078.55 402.5L2227.5 377L2300.5 421.203L2434.5 463L2534 889.06H2057.95H1472.98C1478.31 883.117 1488.96 869.203 1488.96 861.087V830.348V798.071C1496.85 787.824 1514.97 763.52 1524.31 748.273C1533.66 733.026 1533.13 703.803 1531.69 691.097L1610.69 655.746L1673.71 642.528L1729.65 566.294L1780.99 525.41L1816.03 479.915C1816.03 479.915 1878.74 416.854 1890.73 421.203C1900.5 424.745 1912.86 435.958 1912.86 435.958H1975.88Z" fill="url(#paint3_linear_441_9455)"/>
<path d="M603.565 596.38L768.637 667.696L808.598 688.599L833.19 725.179L900.817 765.141L915.572 893.94H180.894V850.289L220.856 725.179V610.52L243.603 526.908L290.635 489.098C290.635 489.098 317.378 466.658 325.371 462.662C333.363 458.666 346.274 474.036 360.106 474.651C366.182 474.921 385.803 490.952 403.142 499.549C425.284 510.528 445.255 514.612 445.255 514.612L475.38 543.814C475.38 543.814 496.283 529.675 506.12 526.908C515.957 524.141 603.565 596.38 603.565 596.38Z" fill="url(#paint4_linear_441_9455)"/>
<path d="M102.671 435.958L10.4523 392H0.000854492V889.06H20.5964H605.572C600.244 883.117 589.588 869.203 589.588 861.087V830.348V798.071C581.698 787.824 563.582 763.52 554.237 748.273C544.892 733.026 545.425 703.803 546.86 691.097L467.859 655.746L404.842 642.528L348.896 566.294L297.561 525.41L262.518 479.915C262.518 479.915 199.809 416.854 187.82 421.203C178.055 424.745 165.688 435.958 165.688 435.958H102.671Z" fill="url(#paint5_linear_441_9455)"/>
<path d="M2905.5 324.483L2945.48 444.368L3037.96 495.5L3065.96 580L3037.96 734L2931.96 769.901H1687C1732.5 718.771 1823.48 613.805 1823.48 602.985C1823.48 589.459 1849 563.945 1860.68 557.182C1870.02 551.772 1928.72 525.828 1956.89 513.532L2032 523L2214.8 478.181L2310.5 404L2379.5 395.492L2478.24 346.308L2622 309.5L2656.84 324.483L2732.76 346.308C2741.27 351.432 2759.26 363.338 2763.2 369.978C2767.13 376.618 2895.87 318.745 2905.5 324.483Z" fill="url(#paint6_linear_441_9455)"/>
<path d="M469.621 817.033L417.979 788.445H369L335 761.394L282 719.588H252.5L159 695.5L143 666L126.5 650.5L109 637C105.5 627.5 92.8617 605.666 81 602C74.5294 600 63 605.5 53.5 605.5L33 597L16.5 574L-0.5 570V1033.44H417.979H1324.49V730.347L1301.44 738.339L1227.05 719.588H1198.46L1148.66 738.339H1114.85L1094.56 746.639C1084.62 740.286 1061.73 725.982 1049.68 719.588C1037.63 713.194 1029.49 703.398 1026.93 699.3H993.118L978.055 691H957.767C946.086 696.943 917.867 710.981 898.439 719.588C879.012 728.195 837.882 735.675 819.746 738.339L785.932 761.394L686.028 805.966L608.872 817.033H524.953H469.621Z" fill="white"/>
<path d="M851.621 816.645L799.979 788.057V1033.05H2079.67H2902.5V416H2877.5L2818 451L2785.5 481L2750 465.5L2719 474L2696 491.5L2658 496L2622 508.5L2596 543L2553 533.5L2508.5 508.5H2459L2391.5 543H2349L2299.5 570.5L2254.5 607L2194.5 643L2125 607H2079.67L1990.53 656.798L1886.32 677.086H1833.45L1706.49 729.959L1683.44 737.951L1609.05 719.2H1580.46L1530.66 737.951H1496.85L1476.56 746.251C1466.62 739.898 1443.73 725.594 1431.68 719.2C1419.63 712.806 1411.49 703.01 1408.93 698.912H1375.12L1360.06 690.612H1339.77C1328.09 696.555 1299.87 710.593 1280.44 719.2C1261.01 727.807 1219.88 735.287 1201.75 737.951L1167.93 761.006L1068.03 805.578L990.872 816.645H906.953H851.621Z" fill="white"/>
<path d="M1820 375.392C1814.28 375.52 1807.14 379.067 1805.27 380.436C1805.17 378.576 1803.87 371.868 1800.74 367.02C1797.62 362.171 1790.16 360.421 1786.67 359.265C1788.51 358.793 1793.84 358.567 1800.44 361.437C1807.05 364.308 1809 369.338 1809.06 371.724C1811.45 370.402 1817.7 368.394 1825.4 371.743C1833.11 375.092 1832.98 379.398 1832.98 379.398C1828.33 376.289 1825.73 375.264 1820 375.392Z" fill="#FF9365"/>
<path d="M1938.49 323.246C1934.65 323.331 1929.88 325.705 1928.63 326.621C1928.56 325.376 1927.69 320.888 1925.6 317.643C1923.51 314.399 1918.52 313.228 1916.18 312.455C1917.41 312.139 1920.98 311.987 1925.4 313.908C1929.82 315.829 1931.13 319.195 1931.16 320.791C1932.76 319.906 1936.95 318.563 1942.1 320.804C1947.26 323.045 1947.17 325.926 1947.17 325.926C1944.06 323.846 1942.32 323.16 1938.49 323.246Z" fill="#FF9365"/>
<path d="M1662 541.559L1659.81 553.396L1669.65 560.33L1657.81 558.142L1650.88 567.982L1653.07 556.145L1643.23 549.211L1655.06 551.399L1662 541.559Z" fill="#FF9365"/>
<path d="M1172.33 590.559L1170.14 602.396L1179.98 609.33L1168.15 607.142L1161.21 616.982L1163.4 605.145L1153.56 598.211L1165.4 600.399L1172.33 590.559Z" fill="#FF9365"/>
</g>
<defs>
<linearGradient id="paint0_linear_441_9455" x1="1450" y1="0" x2="1450" y2="838.5" gradientUnits="userSpaceOnUse">
<stop stop-color="#FFE8D3"/>
<stop offset="1" stop-color="#FFE8D3" stop-opacity="0"/>
</linearGradient>
<linearGradient id="paint1_linear_441_9455" x1="1564.05" y1="542" x2="1625.48" y2="678" gradientUnits="userSpaceOnUse">
<stop stop-color="#FFD5AE"/>
<stop offset="1" stop-color="#FFF8F2"/>
</linearGradient>
<linearGradient id="paint2_linear_441_9455" x1="1359.48" y1="561.5" x2="1339.98" y2="742.5" gradientUnits="userSpaceOnUse">
<stop stop-color="#FFD6B0"/>
<stop offset="1" stop-color="#FFECDA"/>
</linearGradient>
<linearGradient id="paint3_linear_441_9455" x1="1765.48" y1="563.5" x2="1785.55" y2="669.577" gradientUnits="userSpaceOnUse">
<stop stop-color="#FFD3AB"/>
<stop offset="1" stop-color="#FFE8D3"/>
</linearGradient>
<linearGradient id="paint4_linear_441_9455" x1="514.499" y1="542" x2="453.072" y2="678" gradientUnits="userSpaceOnUse">
<stop stop-color="#FFD5AE"/>
<stop offset="1" stop-color="#FFF8F2"/>
</linearGradient>
<linearGradient id="paint5_linear_441_9455" x1="313.072" y1="563.5" x2="293.004" y2="669.577" gradientUnits="userSpaceOnUse">
<stop stop-color="#FFD3AB"/>
<stop offset="1" stop-color="#FFE8D3"/>
</linearGradient>
<linearGradient id="paint6_linear_441_9455" x1="2281.98" y1="397.5" x2="2301.48" y2="578.5" gradientUnits="userSpaceOnUse">
<stop stop-color="#FFD6B0"/>
<stop offset="1" stop-color="#FFECDA"/>
</linearGradient>
<clipPath id="clip0_441_9455">
<rect width="2900" height="1159" fill="white"/>
</clipPath>
</defs>
</svg>
