<svg width="2900" height="385" viewBox="0 0 2900 385" fill="none" xmlns="http://www.w3.org/2000/svg">
<g clip-path="url(#clip0_442_9057)">
<rect width="2900" height="385" fill="#FFF7ED"/>
<path d="M912.585 270.095H856.938L780 265L658.5 241.309L513.5 265L411.5 270.095L369 299C364.5 305.5 347.6 318.5 316 318.5C284.4 318.5 202.167 286.23 165 270.095L115.5 214.071H49.5L7 171.976L-13 190.857V488H805H2092H2900V19C2863.83 32.1667 2788.2 58.5 2775 58.5C2761.8 58.5 2690.5 74.1667 2656.5 82L2482 58.5L2455.5 82L2363.5 94.5L2301 58.5H2222L2143 82L2057.5 94.5L2005 82L1953 94.5L1895 129.571H1820H1763.5L1725.5 163.5L1693.5 190.857L1618.69 171.976H1589.94L1539.85 190.857H1505.85L1485.44 199.214C1475.45 192.817 1452.43 178.414 1440.31 171.976C1428.19 165.538 1420.01 155.674 1417.43 151.547H1388L1367.5 143.5H1341.5C1329.75 149.484 1307.74 163.309 1288.2 171.976C1268.67 180.643 1227.3 188.174 1209.06 190.857L1175.06 214.071L1059.5 241.309L1008 265L954.5 270.095H912.585Z" fill="white"/>
</g>
<defs>
<clipPath id="clip0_442_9057">
<rect width="2900" height="385" fill="white"/>
</clipPath>
</defs>
</svg>
