<svg width="2900" height="563" viewBox="0 0 2900 563" fill="none" xmlns="http://www.w3.org/2000/svg">
<g clip-path="url(#clip0_442_9029)">
<path d="M1500.01 251.38L1334.94 322.696L1294.97 343.599L1270.38 380.179L1202.76 420.141L1188 548.94H1922.68V505.289L1882.72 380.179V265.52L1859.97 181.908L1812.94 144.098C1812.94 144.098 1786.19 121.658 1778.2 117.662C1770.21 113.666 1757.3 129.036 1743.47 129.651C1737.39 129.921 1717.77 145.952 1700.43 154.549C1678.29 165.528 1658.32 169.612 1658.32 169.612L1628.19 198.814C1628.19 198.814 1607.29 184.675 1597.45 181.908C1587.62 179.141 1500.01 251.38 1500.01 251.38Z" fill="url(#paint0_linear_442_9029)"/>
<path d="M2007.9 107.958L2100.12 64L2139.5 75.5L2179 107.958H2265L2383 75.5L2505 29L2547.5 42L2650 64L2740 29H2802.5L2897 2V561.06H2110.57H2089.98H1505C1510.33 555.117 1520.98 541.203 1520.98 533.087V502.348V470.071C1528.87 459.824 1546.99 435.52 1556.34 420.273C1565.68 405.026 1586.93 382.206 1585.5 369.5L1642.71 327.746L1705.73 314.528L1761.68 238.294L1813.01 197.41L1848.05 151.915C1848.05 151.915 1910.76 88.8537 1922.75 93.2027C1932.52 96.7452 1944.88 107.958 1944.88 107.958H2007.9Z" fill="url(#paint1_linear_442_9029)"/>
<path d="M687.121 259.87H657.431L577 286.5L458 259.87L375 286.5L215 339.675H114L1.5 259.87V563H613H622.135H1463C1432.27 528.432 1370.82 407.467 1370.82 400.152C1370.82 391.007 1353.58 373.758 1345.69 369.186C1339.38 365.528 1299.74 347.988 1280.71 339.675H1172.54L1106.51 315.775L1025.54 259.87L960.557 242.621L928.584 226.619L902.424 193.575L891.004 182.144H875.018L861.315 173L834.116 193.575L807.956 211.863L756.674 226.619C750.929 230.082 738.777 238.132 736.119 242.621C733.462 247.11 719.786 255.991 713.281 259.87H687.121Z" fill="url(#paint2_linear_442_9029)"/>
<path d="M852.059 509.095L800 480.309H692.5L596 509.095C570.333 520.23 513 542.5 489 542.5C465 542.5 378.667 520.23 338.5 509.095H165C117 509.095 31.3333 471.746 -5.5 453.071V987H800H2090H2908.5V151L2850 170.5C2831.33 186.667 2790.1 222.9 2774.5 238.5C2758.9 254.1 2729 245 2716 238.5L2679.5 275H2575L2526 238.5H2455.5L2397 275L2295 292L2256 275L2166 292L2127 309H2066L2000.14 348.143L1895.09 368.571H1841.79L1713.81 421.81L1690.57 429.857L1615.58 410.976H1586.77L1536.57 429.857H1502.48L1482.03 438.214C1472.01 431.817 1448.94 417.414 1436.79 410.976C1424.64 404.538 1416.44 394.675 1413.86 390.548H1379.77L1364.59 382.19H1344.14C1332.36 388.175 1303.92 402.309 1284.33 410.976C1264.75 419.643 1223.29 427.175 1205 429.857L1170.92 453.071L1070.21 497.952L992.431 509.095H907.836H852.059Z" fill="#FFF7ED"/>
<path d="M1845.02 100.392C1839.3 100.52 1832.16 104.067 1830.29 105.436C1830.19 103.576 1828.89 96.8679 1825.76 92.0195C1822.64 87.1712 1815.18 85.4212 1811.69 84.265C1813.53 83.7931 1818.86 83.5669 1825.46 86.4374C1832.07 89.3079 1834.02 94.3384 1834.08 96.7241C1836.47 95.4015 1842.72 93.3943 1850.43 96.7432C1858.13 100.092 1858 104.398 1858 104.398C1853.36 101.289 1850.75 100.264 1845.02 100.392Z" fill="#FF9365"/>
<path d="M1963.51 48.2455C1959.68 48.3311 1954.9 50.705 1953.65 51.621C1953.58 50.376 1952.71 45.8876 1950.62 42.6434C1948.53 39.3992 1943.54 38.2282 1941.2 37.4546C1942.43 37.1388 1946 36.9875 1950.42 38.9082C1954.84 40.8289 1956.15 44.195 1956.18 45.7913C1957.78 44.9064 1961.97 43.5633 1967.12 45.8041C1972.28 48.045 1972.19 50.9264 1972.19 50.9264C1969.08 48.8455 1967.34 48.1599 1963.51 48.2455Z" fill="#FF9365"/>
</g>
<defs>
<linearGradient id="paint0_linear_442_9029" x1="1598.5" y1="217" x2="1633" y2="393.5" gradientUnits="userSpaceOnUse">
<stop stop-color="#FFD5AE"/>
<stop offset="1" stop-color="#FFF8F2"/>
</linearGradient>
<linearGradient id="paint1_linear_442_9029" x1="1861.57" y1="158.468" x2="1871.22" y2="380.273" gradientUnits="userSpaceOnUse">
<stop stop-color="#FFD3AB"/>
<stop offset="1" stop-color="#FFE8D3"/>
</linearGradient>
<linearGradient id="paint2_linear_442_9029" x1="1038" y1="258.5" x2="1034.44" y2="493.999" gradientUnits="userSpaceOnUse">
<stop stop-color="#FFD6B0"/>
<stop offset="1" stop-color="#FFECDA"/>
</linearGradient>
<clipPath id="clip0_442_9029">
<rect width="2900" height="563" fill="white"/>
</clipPath>
</defs>
</svg>
