<svg width="110" height="26" viewBox="0 0 110 26" fill="none" xmlns="http://www.w3.org/2000/svg">
<path d="M5.60695 21.2657C4.33951 20.3787 3.36169 19.2337 2.69404 17.951C7.02874 18.9223 11.7157 17.2701 14.4211 13.4046C15.9611 11.2042 16.6071 8.64495 16.4362 6.15999C20.4975 9.13907 21.4529 14.833 18.5502 18.9805C15.607 23.1857 9.81217 24.2088 5.60695 21.2657Z" stroke="#D8D0FC" stroke-width="2"/>
<path d="M1.62891 7.88499L3.11724 6.3861M12.5539 2.92388L14.0422 1.43555M7.5928 13.8489L9.09168 12.3605M6.30502 3.19832L7.80391 1.70999M9.29224 6.18555L5.5978 9.87999" stroke="#D8D0FC" stroke-width="2" stroke-linecap="round" stroke-linejoin="round"/>
<path d="M26.8291 20.3934C26.4157 20.3934 26.0957 20.2801 25.8691 20.0534C25.6557 19.8134 25.5491 19.4867 25.5491 19.0734V7.4334C25.5491 7.00673 25.6624 6.68673 25.8891 6.4734C26.1157 6.24673 26.4357 6.1334 26.8491 6.1334H31.6691C33.2157 6.1334 34.4091 6.50673 35.2491 7.2534C36.0891 7.98673 36.5091 9.02006 36.5091 10.3534C36.5091 11.2201 36.3157 11.9667 35.9291 12.5934C35.5557 13.2201 35.0091 13.7001 34.2891 14.0334C33.5691 14.3667 32.6957 14.5334 31.6691 14.5334L31.8491 14.2334H32.5091C33.0557 14.2334 33.5291 14.3667 33.9291 14.6334C34.3424 14.9001 34.7024 15.3201 35.0091 15.8934L36.5091 18.6734C36.6691 18.9534 36.7424 19.2267 36.7291 19.4934C36.7157 19.7601 36.6157 19.9801 36.4291 20.1534C36.2424 20.3134 35.9691 20.3934 35.6091 20.3934C35.2491 20.3934 34.9557 20.3201 34.7291 20.1734C34.5024 20.0134 34.3024 19.7734 34.1291 19.4534L32.1091 15.7334C31.8691 15.2801 31.5824 14.9801 31.2491 14.8334C30.9291 14.6734 30.5157 14.5934 30.0091 14.5934H28.1091V19.0734C28.1091 19.4867 28.0024 19.8134 27.7891 20.0534C27.5757 20.2801 27.2557 20.3934 26.8291 20.3934ZM28.1091 12.6934H31.2291C32.1491 12.6934 32.8424 12.5067 33.3091 12.1334C33.7891 11.7467 34.0291 11.1734 34.0291 10.4134C34.0291 9.66673 33.7891 9.10673 33.3091 8.7334C32.8424 8.34673 32.1491 8.1534 31.2291 8.1534H28.1091V12.6934ZM40.38 20.2334C39.94 20.2334 39.6 20.1201 39.36 19.8934C39.1333 19.6534 39.02 19.3134 39.02 18.8734V7.4934C39.02 7.0534 39.1333 6.72006 39.36 6.4934C39.6 6.2534 39.94 6.1334 40.38 6.1334H47.52C47.8533 6.1334 48.1067 6.22006 48.28 6.3934C48.4667 6.56673 48.56 6.8134 48.56 7.1334C48.56 7.46673 48.4667 7.72673 48.28 7.9134C48.1067 8.08673 47.8533 8.1734 47.52 8.1734H41.48V12.0534H47.08C47.4267 12.0534 47.6867 12.1401 47.86 12.3134C48.0333 12.4867 48.12 12.7401 48.12 13.0734C48.12 13.4067 48.0333 13.6601 47.86 13.8334C47.6867 14.0067 47.4267 14.0934 47.08 14.0934H41.48V18.1934H47.52C47.8533 18.1934 48.1067 18.2801 48.28 18.4534C48.4667 18.6267 48.56 18.8801 48.56 19.2134C48.56 19.5467 48.4667 19.8001 48.28 19.9734C48.1067 20.1467 47.8533 20.2334 47.52 20.2334H40.38ZM55.3783 20.4334C54.7916 20.4334 54.2049 20.3867 53.6183 20.2934C53.0316 20.2134 52.4783 20.0867 51.9583 19.9134C51.4383 19.7267 50.9716 19.5001 50.5583 19.2334C50.3183 19.0734 50.1516 18.8801 50.0583 18.6534C49.9649 18.4267 49.9316 18.2067 49.9583 17.9934C49.9983 17.7667 50.0849 17.5734 50.2183 17.4134C50.3649 17.2401 50.5449 17.1334 50.7583 17.0934C50.9716 17.0534 51.2049 17.1134 51.4583 17.2734C52.0449 17.6201 52.6649 17.8734 53.3183 18.0334C53.9716 18.1934 54.6583 18.2734 55.3783 18.2734C56.4316 18.2734 57.1983 18.1001 57.6783 17.7534C58.1583 17.3934 58.3983 16.9334 58.3983 16.3734C58.3983 15.9067 58.2249 15.5401 57.8783 15.2734C57.5449 15.0067 56.9649 14.7867 56.1383 14.6134L53.9383 14.1534C52.6716 13.8867 51.7249 13.4401 51.0983 12.8134C50.4849 12.1734 50.1783 11.3334 50.1783 10.2934C50.1783 9.64006 50.3116 9.04673 50.5783 8.5134C50.8449 7.98006 51.2183 7.52006 51.6983 7.1334C52.1916 6.74673 52.7716 6.4534 53.4383 6.2534C54.1183 6.04006 54.8649 5.9334 55.6783 5.9334C56.4783 5.9334 57.2383 6.0334 57.9583 6.2334C58.6783 6.4334 59.3249 6.72673 59.8983 7.1134C60.1116 7.26006 60.2516 7.44006 60.3183 7.6534C60.3983 7.86673 60.4183 8.08006 60.3783 8.2934C60.3383 8.4934 60.245 8.66673 60.0983 8.8134C59.9516 8.96006 59.7649 9.04673 59.5383 9.0734C59.3249 9.10006 59.0783 9.0334 58.7983 8.8734C58.305 8.5934 57.8049 8.3934 57.2983 8.2734C56.7916 8.1534 56.245 8.0934 55.6583 8.0934C55.0449 8.0934 54.5183 8.18006 54.0783 8.3534C53.6383 8.52673 53.2983 8.7734 53.0583 9.0934C52.8316 9.40006 52.7183 9.76673 52.7183 10.1934C52.7183 10.6734 52.8783 11.0601 53.1983 11.3534C53.5183 11.6334 54.0649 11.8534 54.8383 12.0134L57.0183 12.4734C58.3383 12.7534 59.3183 13.1934 59.9583 13.7934C60.6116 14.3934 60.9383 15.1934 60.9383 16.1934C60.9383 16.8334 60.805 17.4134 60.5383 17.9334C60.2849 18.4534 59.9116 18.9001 59.4183 19.2734C58.9383 19.6467 58.3583 19.9334 57.6783 20.1334C56.9983 20.3334 56.2316 20.4334 55.3783 20.4334ZM67.2825 20.3934C66.8692 20.3934 66.5492 20.2801 66.3225 20.0534C66.1092 19.8134 66.0025 19.4867 66.0025 19.0734V8.2734H62.1025C61.7558 8.2734 61.4825 8.18006 61.2825 7.9934C61.0958 7.7934 61.0025 7.52673 61.0025 7.1934C61.0025 6.84673 61.0958 6.58673 61.2825 6.4134C61.4825 6.22673 61.7558 6.1334 62.1025 6.1334H72.4625C72.8092 6.1334 73.0758 6.22673 73.2625 6.4134C73.4625 6.58673 73.5625 6.84673 73.5625 7.1934C73.5625 7.52673 73.4625 7.7934 73.2625 7.9934C73.0758 8.18006 72.8092 8.2734 72.4625 8.2734H68.5625V19.0734C68.5625 19.4867 68.4558 19.8134 68.2425 20.0534C68.0292 20.2801 67.7092 20.3934 67.2825 20.3934ZM76.1044 20.3934C75.691 20.3934 75.3644 20.2801 75.1244 20.0534C74.8977 19.8134 74.7844 19.4734 74.7844 19.0334V7.4934C74.7844 7.0534 74.8977 6.72006 75.1244 6.4934C75.3644 6.2534 75.7044 6.1334 76.1444 6.1334H83.1244C83.471 6.1334 83.731 6.22006 83.9044 6.3934C84.0777 6.56673 84.1644 6.8134 84.1644 7.1334C84.1644 7.46673 84.0777 7.72673 83.9044 7.9134C83.731 8.08673 83.471 8.1734 83.1244 8.1734H77.3444V12.1534H82.7044C83.0377 12.1534 83.291 12.2401 83.4644 12.4134C83.651 12.5867 83.7444 12.8334 83.7444 13.1534C83.7444 13.4867 83.651 13.7467 83.4644 13.9334C83.291 14.1067 83.0377 14.1934 82.7044 14.1934H77.3444V19.0334C77.3444 19.9401 76.931 20.3934 76.1044 20.3934ZM91.6348 20.4334C90.6615 20.4334 89.8015 20.3067 89.0548 20.0534C88.3215 19.8001 87.7015 19.4267 87.1948 18.9334C86.6882 18.4267 86.3082 17.8001 86.0548 17.0534C85.8015 16.3067 85.6748 15.4401 85.6748 14.4534V7.2734C85.6748 6.8334 85.7815 6.50673 85.9948 6.2934C86.2215 6.08006 86.5415 5.9734 86.9548 5.9734C87.3682 5.9734 87.6815 6.08006 87.8948 6.2934C88.1215 6.50673 88.2348 6.8334 88.2348 7.2734V14.4334C88.2348 15.7001 88.5215 16.6534 89.0948 17.2934C89.6815 17.9201 90.5282 18.2334 91.6348 18.2334C92.7415 18.2334 93.5815 17.9201 94.1548 17.2934C94.7282 16.6534 95.0148 15.7001 95.0148 14.4334V7.2734C95.0148 6.8334 95.1215 6.50673 95.3348 6.2934C95.5615 6.08006 95.8815 5.9734 96.2948 5.9734C96.6948 5.9734 97.0015 6.08006 97.2148 6.2934C97.4415 6.50673 97.5548 6.8334 97.5548 7.2734V14.4534C97.5548 15.7601 97.3282 16.8601 96.8748 17.7534C96.4348 18.6467 95.7748 19.3201 94.8948 19.7734C94.0148 20.2134 92.9282 20.4334 91.6348 20.4334ZM101.6 20.2334C101.187 20.2334 100.867 20.1201 100.64 19.8934C100.414 19.6534 100.3 19.3267 100.3 18.9134V7.3734C100.3 6.94673 100.407 6.62673 100.62 6.4134C100.847 6.18673 101.167 6.0734 101.58 6.0734C101.994 6.0734 102.307 6.18673 102.52 6.4134C102.747 6.62673 102.86 6.94673 102.86 7.3734V18.0534H108.66C109.02 18.0534 109.294 18.1467 109.48 18.3334C109.68 18.5201 109.78 18.7867 109.78 19.1334C109.78 19.4801 109.68 19.7534 109.48 19.9534C109.294 20.1401 109.02 20.2334 108.66 20.2334H101.6Z" fill="white"/>
</svg>
