<svg width="481" height="509" viewBox="0 0 481 509" fill="none" xmlns="http://www.w3.org/2000/svg">
<circle cx="290.5" cy="172.5" r="172.5" fill="#FFE8D3"/>
<path d="M43.6222 469.831V500.73C42.2459 500.73 38.6677 501.457 35.3649 504.365C32.062 507.273 33.9887 508 35.3649 508H78.7146C86.9717 508 82.155 505.577 78.7146 504.365L72.5218 500.73L74.3491 455.949C74.3491 453.526 78.7146 435.296 91.1002 428.026C102.185 421.519 111.743 411.668 113.807 404.397L120 282.619C120 266.867 119.587 234.635 117.936 231.727C115.871 228.092 111.743 238.997 111.743 244.45C111.743 249.903 101.422 364.411 99.3573 386.222C97.7059 403.67 93.1645 405.609 91.1002 404.397C91.1002 388.039 90.2745 355.323 86.9717 355.323C83.6688 355.323 78.0265 386.827 78.7146 404.397L69.3446 397.127V380.769L72.5218 345.351V308.418C71.8337 295.089 74.1732 279.348 72.5218 273.531C70.4575 266.261 70.4575 262.458 64.2647 264.276C59.3104 265.73 58.0719 283.225 58.0719 295.342L53.9433 393.492L47.7505 388.039L41.5577 364.411C41.5577 358.352 41.1448 345.508 39.4934 342.6C37.4291 338.964 39.4934 297.16 33.3006 295.342C28.3464 293.888 27.1078 321.394 27.1078 335.329C24.3554 332.3 18.4379 325.151 16.7864 320.789C14.7222 315.336 18.8507 277.166 18.8507 273.531C18.8507 269.896 14.7222 269.896 10.5939 273.531C6.46557 277.166 6.46508 315.336 8.52935 331.694C10.1808 344.781 21.6031 352.899 27.1078 355.323C28.484 361.987 31.2363 376.407 31.2363 380.769C31.2363 385.131 42.2458 410.456 47.7505 422.573V449.837C43.622 444.99 34.952 435.296 33.3006 435.296C31.2363 435.296 16.7864 406.215 14.7222 397.127C12.6579 388.039 6.46532 386.222 2.33678 386.222C-1.79176 386.222 4.40105 409.85 10.5939 422.573C15.5481 432.752 34.677 458.319 43.6222 469.831Z" stroke="#111827" stroke-width="2"/>
<path d="M370.343 296.224C363.152 305.111 358.649 318.724 327.514 320.556L296.769 313.84L268.842 301.631C255.685 294.053 245.431 272.541 243.588 265.448L248.069 150.412C249.647 135.638 253.39 105.464 255.738 102.956C258.674 99.8215 262.724 110.599 262.178 115.713C261.632 120.827 263.021 229.593 263.409 250.323C263.718 266.908 269.181 269.33 271.874 268.468C273.513 253.126 277.818 222.552 281.932 222.992C286.047 223.431 281.842 256.315 279.225 272.701L286.757 275.23L293.311 213.862L296.769 181.474C298.961 169.065 304.005 142.937 306.645 137.702C309.945 131.158 312.516 131.433 320.049 133.961C326.075 135.984 325.154 159.218 323.941 170.583L319.254 263.183L327.514 258.893L337.595 237.556C338.202 231.874 340.003 219.883 342.351 217.375C345.287 214.24 346.902 174.759 354.799 173.878C361.116 173.173 359.904 199.135 358.509 212.204C362.241 209.729 370.328 203.811 372.822 199.94C375.94 195.101 374.62 158.754 374.984 155.344C375.348 151.935 380.491 152.484 385.27 156.443C390.048 160.401 386.226 196.199 382.016 211.266C378.648 223.32 363.606 229.415 356.506 230.955C354.124 237.023 349.251 250.18 348.815 254.271C348.378 258.362 332.127 280.649 324.056 291.281L323.941 301.631C327.514 305.136 338.877 305.944 340.782 305.136C354.799 299.189 364.267 280.059 367.748 271.81C371.23 263.561 379.126 262.68 384.269 263.23C389.412 263.779 379.331 285.116 370.343 296.224Z" stroke="#111827" stroke-width="2"/>
<path d="M376.119 416.392C370.393 416.52 363.253 420.067 361.386 421.436C361.286 419.576 359.986 412.868 356.86 408.019C353.733 403.171 346.28 401.421 342.784 400.265C344.625 399.793 349.957 399.567 356.56 402.437C363.163 405.308 365.12 410.338 365.173 412.724C367.566 411.401 373.818 409.394 381.521 412.743C389.225 416.092 389.097 420.398 389.097 420.398C384.452 417.288 381.844 416.264 376.119 416.392Z" fill="#FF9365"/>
<path d="M470.506 364.246C466.674 364.331 461.897 366.705 460.647 367.621C460.581 366.376 459.711 361.888 457.619 358.643C455.527 355.399 450.539 354.228 448.201 353.455C449.432 353.139 453 352.987 457.419 354.908C461.837 356.829 463.146 360.195 463.182 361.791C464.782 360.906 468.966 359.563 474.121 361.804C479.275 364.045 479.19 366.926 479.19 366.926C476.082 364.846 474.337 364.16 470.506 364.246Z" fill="#FF9365"/>
</svg>
