<svg width="110" height="25" viewBox="0 0 110 25" fill="none" xmlns="http://www.w3.org/2000/svg">
<path d="M5.60695 21.0326C4.33951 20.1455 3.36169 19.0005 2.69404 17.7178C7.02874 18.6891 11.7157 17.037 14.4211 13.1714C15.9611 10.9711 16.6071 8.41179 16.4362 5.92684C20.4975 8.90592 21.4529 14.5998 18.5502 18.7473C15.607 22.9525 9.81217 23.9757 5.60695 21.0326Z" stroke="#421C86" stroke-width="2"/>
<path d="M1.62891 7.65159L3.11724 6.1527M12.5539 2.69048L14.0422 1.20215M7.5928 13.6155L9.09168 12.1271M6.30502 2.96493L7.80391 1.47659M9.29224 5.95215L5.5978 9.64659" stroke="#421C86" stroke-width="2" stroke-linecap="round" stroke-linejoin="round"/>
<path d="M26.8291 20.16C26.4157 20.16 26.0957 20.0467 25.8691 19.82C25.6557 19.58 25.5491 19.2533 25.5491 18.84V7.2C25.5491 6.77333 25.6624 6.45333 25.8891 6.24C26.1157 6.01333 26.4357 5.9 26.8491 5.9H31.6691C33.2157 5.9 34.4091 6.27333 35.2491 7.02C36.0891 7.75333 36.5091 8.78667 36.5091 10.12C36.5091 10.9867 36.3157 11.7333 35.9291 12.36C35.5557 12.9867 35.0091 13.4667 34.2891 13.8C33.5691 14.1333 32.6957 14.3 31.6691 14.3L31.8491 14H32.5091C33.0557 14 33.5291 14.1333 33.9291 14.4C34.3424 14.6667 34.7024 15.0867 35.0091 15.66L36.5091 18.44C36.6691 18.72 36.7424 18.9933 36.7291 19.26C36.7157 19.5267 36.6157 19.7467 36.4291 19.92C36.2424 20.08 35.9691 20.16 35.6091 20.16C35.2491 20.16 34.9557 20.0867 34.7291 19.94C34.5024 19.78 34.3024 19.54 34.1291 19.22L32.1091 15.5C31.8691 15.0467 31.5824 14.7467 31.2491 14.6C30.9291 14.44 30.5157 14.36 30.0091 14.36H28.1091V18.84C28.1091 19.2533 28.0024 19.58 27.7891 19.82C27.5757 20.0467 27.2557 20.16 26.8291 20.16ZM28.1091 12.46H31.2291C32.1491 12.46 32.8424 12.2733 33.3091 11.9C33.7891 11.5133 34.0291 10.94 34.0291 10.18C34.0291 9.43333 33.7891 8.87333 33.3091 8.5C32.8424 8.11333 32.1491 7.92 31.2291 7.92H28.1091V12.46ZM40.38 20C39.94 20 39.6 19.8867 39.36 19.66C39.1333 19.42 39.02 19.08 39.02 18.64V7.26C39.02 6.82 39.1333 6.48667 39.36 6.26C39.6 6.02 39.94 5.9 40.38 5.9H47.52C47.8533 5.9 48.1067 5.98667 48.28 6.16C48.4667 6.33333 48.56 6.58 48.56 6.9C48.56 7.23333 48.4667 7.49333 48.28 7.68C48.1067 7.85333 47.8533 7.94 47.52 7.94H41.48V11.82H47.08C47.4267 11.82 47.6867 11.9067 47.86 12.08C48.0333 12.2533 48.12 12.5067 48.12 12.84C48.12 13.1733 48.0333 13.4267 47.86 13.6C47.6867 13.7733 47.4267 13.86 47.08 13.86H41.48V17.96H47.52C47.8533 17.96 48.1067 18.0467 48.28 18.22C48.4667 18.3933 48.56 18.6467 48.56 18.98C48.56 19.3133 48.4667 19.5667 48.28 19.74C48.1067 19.9133 47.8533 20 47.52 20H40.38ZM55.3783 20.2C54.7916 20.2 54.2049 20.1533 53.6183 20.06C53.0316 19.98 52.4783 19.8533 51.9583 19.68C51.4383 19.4933 50.9716 19.2667 50.5583 19C50.3183 18.84 50.1516 18.6467 50.0583 18.42C49.9649 18.1933 49.9316 17.9733 49.9583 17.76C49.9983 17.5333 50.0849 17.34 50.2183 17.18C50.3649 17.0067 50.5449 16.9 50.7583 16.86C50.9716 16.82 51.2049 16.88 51.4583 17.04C52.0449 17.3867 52.6649 17.64 53.3183 17.8C53.9716 17.96 54.6583 18.04 55.3783 18.04C56.4316 18.04 57.1983 17.8667 57.6783 17.52C58.1583 17.16 58.3983 16.7 58.3983 16.14C58.3983 15.6733 58.2249 15.3067 57.8783 15.04C57.5449 14.7733 56.9649 14.5533 56.1383 14.38L53.9383 13.92C52.6716 13.6533 51.7249 13.2067 51.0983 12.58C50.4849 11.94 50.1783 11.1 50.1783 10.06C50.1783 9.40667 50.3116 8.81333 50.5783 8.28C50.8449 7.74667 51.2183 7.28667 51.6983 6.9C52.1916 6.51333 52.7716 6.22 53.4383 6.02C54.1183 5.80667 54.8649 5.7 55.6783 5.7C56.4783 5.7 57.2383 5.8 57.9583 6C58.6783 6.2 59.3249 6.49333 59.8983 6.88C60.1116 7.02667 60.2516 7.20667 60.3183 7.42C60.3983 7.63333 60.4183 7.84667 60.3783 8.06C60.3383 8.26 60.245 8.43333 60.0983 8.58C59.9516 8.72667 59.7649 8.81333 59.5383 8.84C59.3249 8.86667 59.0783 8.8 58.7983 8.64C58.305 8.36 57.8049 8.16 57.2983 8.04C56.7916 7.92 56.245 7.86 55.6583 7.86C55.0449 7.86 54.5183 7.94667 54.0783 8.12C53.6383 8.29333 53.2983 8.54 53.0583 8.86C52.8316 9.16667 52.7183 9.53333 52.7183 9.96C52.7183 10.44 52.8783 10.8267 53.1983 11.12C53.5183 11.4 54.0649 11.62 54.8383 11.78L57.0183 12.24C58.3383 12.52 59.3183 12.96 59.9583 13.56C60.6116 14.16 60.9383 14.96 60.9383 15.96C60.9383 16.6 60.805 17.18 60.5383 17.7C60.2849 18.22 59.9116 18.6667 59.4183 19.04C58.9383 19.4133 58.3583 19.7 57.6783 19.9C56.9983 20.1 56.2316 20.2 55.3783 20.2ZM67.2825 20.16C66.8692 20.16 66.5492 20.0467 66.3225 19.82C66.1092 19.58 66.0025 19.2533 66.0025 18.84V8.04H62.1025C61.7558 8.04 61.4825 7.94667 61.2825 7.76C61.0958 7.56 61.0025 7.29333 61.0025 6.96C61.0025 6.61333 61.0958 6.35333 61.2825 6.18C61.4825 5.99333 61.7558 5.9 62.1025 5.9H72.4625C72.8092 5.9 73.0758 5.99333 73.2625 6.18C73.4625 6.35333 73.5625 6.61333 73.5625 6.96C73.5625 7.29333 73.4625 7.56 73.2625 7.76C73.0758 7.94667 72.8092 8.04 72.4625 8.04H68.5625V18.84C68.5625 19.2533 68.4558 19.58 68.2425 19.82C68.0292 20.0467 67.7092 20.16 67.2825 20.16ZM76.1044 20.16C75.691 20.16 75.3644 20.0467 75.1244 19.82C74.8977 19.58 74.7844 19.24 74.7844 18.8V7.26C74.7844 6.82 74.8977 6.48667 75.1244 6.26C75.3644 6.02 75.7044 5.9 76.1444 5.9H83.1244C83.471 5.9 83.731 5.98667 83.9044 6.16C84.0777 6.33333 84.1644 6.58 84.1644 6.9C84.1644 7.23333 84.0777 7.49333 83.9044 7.68C83.731 7.85333 83.471 7.94 83.1244 7.94H77.3444V11.92H82.7044C83.0377 11.92 83.291 12.0067 83.4644 12.18C83.651 12.3533 83.7444 12.6 83.7444 12.92C83.7444 13.2533 83.651 13.5133 83.4644 13.7C83.291 13.8733 83.0377 13.96 82.7044 13.96H77.3444V18.8C77.3444 19.7067 76.931 20.16 76.1044 20.16ZM91.6348 20.2C90.6615 20.2 89.8015 20.0733 89.0548 19.82C88.3215 19.5667 87.7015 19.1933 87.1948 18.7C86.6882 18.1933 86.3082 17.5667 86.0548 16.82C85.8015 16.0733 85.6748 15.2067 85.6748 14.22V7.04C85.6748 6.6 85.7815 6.27333 85.9948 6.06C86.2215 5.84667 86.5415 5.74 86.9548 5.74C87.3682 5.74 87.6815 5.84667 87.8948 6.06C88.1215 6.27333 88.2348 6.6 88.2348 7.04V14.2C88.2348 15.4667 88.5215 16.42 89.0948 17.06C89.6815 17.6867 90.5282 18 91.6348 18C92.7415 18 93.5815 17.6867 94.1548 17.06C94.7282 16.42 95.0148 15.4667 95.0148 14.2V7.04C95.0148 6.6 95.1215 6.27333 95.3348 6.06C95.5615 5.84667 95.8815 5.74 96.2948 5.74C96.6948 5.74 97.0015 5.84667 97.2148 6.06C97.4415 6.27333 97.5548 6.6 97.5548 7.04V14.22C97.5548 15.5267 97.3282 16.6267 96.8748 17.52C96.4348 18.4133 95.7748 19.0867 94.8948 19.54C94.0148 19.98 92.9282 20.2 91.6348 20.2ZM101.6 20C101.187 20 100.867 19.8867 100.64 19.66C100.414 19.42 100.3 19.0933 100.3 18.68V7.14C100.3 6.71333 100.407 6.39333 100.62 6.18C100.847 5.95333 101.167 5.84 101.58 5.84C101.994 5.84 102.307 5.95333 102.52 6.18C102.747 6.39333 102.86 6.71333 102.86 7.14V17.82H108.66C109.02 17.82 109.294 17.9133 109.48 18.1C109.68 18.2867 109.78 18.5533 109.78 18.9C109.78 19.2467 109.68 19.52 109.48 19.72C109.294 19.9067 109.02 20 108.66 20H101.6Z" fill="#111827"/>
</svg>
